<?xml version="1.0" encoding="UTF-8"?>
<!-- Generated by @neplex/vectorizer (Using visioncortex VTracer) -->
<svg version="1.1" xmlns="http://www.w3.org/2000/svg" width="1024" height="1024">
<path d="M0 0 C16.48 -0.23 32.96 -0.25 49.44 -0.21 C54.69 -0.2 59.94 -0.2 65.19 -0.22 C138.37 -0.37 211.26 2.35 568.19 127.8 C627.16 188.52 654.7 278.75 696.2 633.05 C696.19 638.3 696.19 643.55 696.21 648.8 C696.36 721.98 693.64 794.87 568.19 1151.8 C507.47 1210.77 417.24 1238.31 62.94 1279.81 C57.69 1279.8 52.44 1279.8 47.19 1279.81 C-25.99 1279.97 -98.88 1277.25 -455.81 1151.8 C-514.78 1091.08 -542.33 1000.85 -583.82 646.55 C-583.81 641.3 -583.81 636.05 -583.83 630.8 C-583.98 557.62 -581.26 484.73 0 0 Z " fill="#1B1F31" transform="translate(455.81013894081116,-127.79916512966156)"/>
<path d="M0 0 C1.22 0 1.22 0 2.47 0.01 C53.54 0.2 99.03 19.73 135.35 55.52 C156.56 77 173.44 106.09 181.12 135.31 C181.35 136.17 181.58 137.03 181.82 137.92 C193 182.2 187.46 233.87 163.91 273.34 C161.98 276.46 159.97 279.52 157.91 282.55 C156.01 285.24 156.01 285.24 155.12 288.31 C163.73 289.26 173.14 285.98 179.81 280.62 C182.44 278.2 184.54 275.54 186.69 272.69 C190.09 268.24 192.82 264.8 198.66 263.94 C204.91 263.66 210.09 264.44 215.12 268.31 C219.62 273.85 220.71 278.25 220.12 285.31 C214.7 300.29 200.35 311.99 186.5 318.75 C170.04 325.77 151.42 325.14 134.85 318.68 C124.42 314.4 115.21 308.95 106.12 302.31 C105.48 301.84 104.83 301.37 104.17 300.89 C96.07 294.99 88.21 288.82 80.41 282.53 C75.11 278.27 69.67 274.25 64.12 270.31 C62.83 269.37 61.53 268.42 60.23 267.47 C45.7 256.94 31.41 248.45 14.12 243.31 C13.49 243.12 12.86 242.92 12.21 242.72 C6.73 241.17 1.43 240.93 -4.25 240.94 C-5.2 240.93 -6.15 240.93 -7.12 240.92 C-14.7 241.01 -21.67 242.24 -28.94 244.33 C-31.1 244.93 -31.1 244.93 -33.88 245.31 C-27.27 233.44 -9.02 226.72 3.32 222.99 C26.65 216.54 50.05 221.03 71.1 232.39 C73.21 233.52 73.21 233.52 76.12 233.31 C90.65 214.6 91.9 190.98 90.12 168.31 C89.46 163.06 88.13 158.22 86.12 153.31 C85.55 151.84 85.55 151.84 84.96 150.34 C75.84 128.89 59.84 111.71 38.2 102.62 C36.82 102.07 35.44 101.53 34.06 101 C33.44 100.76 32.81 100.51 32.17 100.26 C22.71 96.81 13.2 95.97 3.19 96.06 C2.13 96.07 1.08 96.08 -0.01 96.09 C-20.43 96.37 -41.45 103.2 -56.24 117.84 C-57.88 119.31 -57.88 119.31 -59.88 119.31 C-60.54 120.65 -61.21 121.98 -61.88 123.31 C-63.2 124.73 -64.56 126.13 -65.94 127.5 C-75.43 137.9 -80.72 150.73 -83.88 164.31 C-84.1 165.05 -84.32 165.79 -84.55 166.55 C-90.19 186.35 -83.75 209.78 -74.56 227.38 C-62.34 248.69 -42.94 262.83 -19.38 269.27 C-9.35 271.59 2.35 272.98 12.52 270.8 C21.1 269.2 26.74 270.36 33.94 275.19 C34.72 275.69 35.49 276.19 36.3 276.7 C42.61 280.81 48.58 285.3 54.46 290 C57.53 292.42 60.68 294.73 63.81 297.06 C68.92 300.86 73.95 304.74 78.95 308.69 C87.07 315.09 95.27 320.98 104.12 326.31 C105.24 327 106.36 327.68 107.5 328.39 C129.1 341.26 152.98 348.49 178.06 342.62 C189.28 339.73 198.5 335.53 207.67 328.44 C209.11 327.34 210.61 326.32 212.12 325.31 C212.45 325.97 212.79 326.63 213.12 327.31 C209.84 335.24 204.61 341.81 199.12 348.31 C198.34 349.34 197.56 350.38 196.75 351.44 C183.3 366.16 164.12 374.85 144.36 376.55 C122.34 377.11 99.51 368.49 82.16 355.01 C78.22 352.81 76.45 353.19 72.12 354.31 C69.73 355.17 67.35 356.09 65 357.06 C58.63 359.57 52.22 361.47 45.56 363.06 C44.75 363.26 43.94 363.46 43.1 363.66 C29.31 366.84 15.71 367.72 1.62 367.69 C0.79 367.69 -0.04 367.69 -0.89 367.69 C-20.4 367.64 -38.48 364.87 -56.88 358.31 C-58.19 357.87 -59.5 357.42 -60.81 356.98 C-106.86 340.96 -143.88 304.42 -164.97 261.09 C-169.59 251.18 -172.82 240.8 -175.88 230.31 C-176.34 228.8 -176.34 228.8 -176.81 227.25 C-189.88 180.66 -179.59 131.28 -156.38 89.88 C-152.96 84.03 -149.05 78.64 -144.88 73.31 C-144.22 72.45 -143.57 71.59 -142.9 70.7 C-139.11 65.81 -135.04 61.19 -130.88 56.62 C-130.16 55.84 -130.16 55.84 -129.44 55.04 C-103.35 26.87 -67.15 9.53 -29.88 2.31 C-29.02 2.13 -28.16 1.95 -27.28 1.77 C-18.19 0.01 -9.22 -0.04 0 0 Z " fill="#8B5CEF" transform="translate(476.875,255.6875)"/>
<path d="M0 0 C0.82 0 1.63 0 2.47 0 C19.89 0.06 38.8 0.43 55.12 7.31 C55.12 7.97 55.12 8.63 55.12 9.31 C56.12 9.48 57.11 9.64 58.12 9.81 C59.12 9.98 60.11 10.14 61.12 10.31 C61.12 10.97 61.12 11.63 61.12 12.31 C62.9 13.16 62.9 13.16 65.06 13.81 C67.28 14.53 67.28 14.53 69.12 15.31 C69.46 15.97 69.78 16.63 70.12 17.31 C69.47 17.31 68.81 17.31 68.12 17.31 C67.96 17.97 67.79 18.63 67.62 19.31 C67.46 19.97 67.29 20.63 67.12 21.31 C66.47 21.31 65.81 21.31 65.12 21.31 C65.17 22.28 65.21 23.25 65.25 24.25 C65.21 25.26 65.17 26.27 65.12 27.31 C63.79 27.65 62.46 27.98 61.12 28.31 C60.29 31.27 60.29 31.27 61.12 34.31 C64.03 35.64 64.03 35.64 67.12 36.31 C67.46 36.97 67.78 37.63 68.12 38.31 C67.13 38.81 67.13 38.81 66.12 39.31 C65.79 40.3 65.47 41.29 65.12 42.31 C63.46 42.35 61.79 42.36 60.12 42.31 C60.12 42.97 60.12 43.63 60.12 44.31 C60.78 44.64 61.44 44.97 62.12 45.31 C56.86 45.03 52.27 44.11 47.25 42.5 C29.18 37.17 9.91 35.22 -8.88 36.31 C-9.91 36.37 -9.91 36.37 -10.97 36.43 C-28.98 37.63 -46.78 43.33 -62.88 51.31 C-64.55 52.13 -64.55 52.13 -66.25 52.96 C-79.7 59.85 -91.05 68.87 -101.88 79.31 C-102.67 80.04 -103.46 80.77 -104.27 81.52 C-129.18 105.07 -143.71 142.59 -145.22 176.38 C-146.24 218.38 -131.41 257.13 -102.59 287.54 C-76.18 314.59 -38.33 331.25 -0.44 331.75 C21.27 331.95 21.27 331.95 41.12 325.31 C39.08 323.24 39.08 323.24 36 321.19 C34.99 320.46 33.97 319.74 32.93 318.99 C32.05 318.39 32.05 318.39 31.15 317.78 C29.13 316.31 29.13 316.31 26.78 314.25 C19.58 308.22 13.98 307.27 4.7 307.51 C1.16 307.6 -2.39 307.54 -5.94 307.5 C-6.63 307.49 -7.32 307.48 -8.04 307.48 C-39.12 307.01 -68.27 289.54 -89.9 268.32 C-91.67 266.39 -93.28 264.39 -94.88 262.31 C-95.65 261.31 -96.43 260.3 -97.23 259.27 C-106.83 246.56 -113.69 232.72 -117.88 217.31 C-118.07 216.61 -118.27 215.91 -118.47 215.19 C-127.14 183.06 -122.05 149.57 -105.88 120.81 C-100.25 111.35 -93.34 103.36 -85.88 95.31 C-85.33 94.71 -84.79 94.1 -84.24 93.48 C-68.58 76.67 -45.69 66.76 -23.88 61.31 C-23.19 61.13 -22.5 60.95 -21.78 60.76 C-14.58 59.07 -7.41 59.01 -0.04 59.05 C2.08 59.06 4.21 59.05 6.33 59.04 C7.69 59.04 9.04 59.04 10.4 59.05 C11.62 59.05 12.84 59.05 14.1 59.05 C17.12 59.31 17.12 59.31 20.12 61.31 C19.79 61.64 19.47 61.97 19.12 62.31 C20.28 62.37 21.44 62.44 22.62 62.5 C23.78 62.77 24.94 63.04 26.12 63.31 C26.19 66.38 26.19 66.38 25.12 69.31 C24.47 69.31 23.81 69.31 23.12 69.31 C22.79 72.31 22.79 72.31 23.12 75.31 C23.78 75.31 24.44 75.31 25.12 75.31 C25.17 77.25 25.17 77.25 24.88 79.75 C24.79 80.57 24.7 81.4 24.61 82.25 C24.45 82.93 24.29 83.61 24.12 84.31 C23.13 84.81 23.13 84.81 22.12 85.31 C21.94 87.05 21.94 87.05 21.75 88.81 C21.54 89.97 21.34 91.12 21.12 92.31 C19.06 93.44 19.06 93.44 17.12 93.31 C17.12 92.32 17.12 91.33 17.12 90.31 C14.01 90.96 14.01 90.96 13.12 93.31 C9.44 94.54 5.91 94.59 2.06 94.75 C-18.69 95.85 -41.3 102.81 -56.31 117.88 C-57.88 119.31 -57.88 119.31 -59.88 119.31 C-60.54 120.65 -61.21 121.98 -61.88 123.31 C-63.2 124.73 -64.56 126.13 -65.94 127.5 C-75.43 137.9 -80.72 150.73 -83.88 164.31 C-84.1 165.05 -84.32 165.79 -84.55 166.55 C-90.19 186.35 -83.75 209.78 -74.56 227.38 C-62.34 248.69 -42.94 262.83 -19.38 269.27 C-9.35 271.59 2.35 272.98 12.52 270.8 C21.1 269.2 26.74 270.36 33.94 275.19 C34.72 275.69 35.49 276.19 36.3 276.7 C42.61 280.81 48.58 285.3 54.46 290 C57.53 292.42 60.68 294.73 63.81 297.06 C68.92 300.86 73.95 304.74 78.95 308.69 C87.07 315.09 95.27 320.98 104.12 326.31 C105.24 327 106.36 327.68 107.5 328.39 C129.1 341.26 152.98 348.49 178.06 342.62 C189.28 339.73 198.5 335.53 207.67 328.44 C209.11 327.34 210.61 326.32 212.12 325.31 C212.45 325.97 212.79 326.63 213.12 327.31 C209.84 335.24 204.61 341.81 199.12 348.31 C198.34 349.34 197.56 350.38 196.75 351.44 C183.3 366.16 164.12 374.85 144.36 376.55 C122.34 377.11 99.51 368.49 82.16 355.01 C78.22 352.81 76.45 353.19 72.12 354.31 C69.73 355.17 67.35 356.09 65 357.06 C58.63 359.57 52.22 361.47 45.56 363.06 C44.75 363.26 43.94 363.46 43.1 363.66 C29.31 366.84 15.71 367.72 1.62 367.69 C0.79 367.69 -0.04 367.69 -0.89 367.69 C-20.4 367.64 -38.48 364.87 -56.88 358.31 C-58.19 357.87 -59.5 357.42 -60.81 356.98 C-106.86 340.96 -143.88 304.42 -164.97 261.09 C-169.59 251.18 -172.82 240.8 -175.88 230.31 C-176.34 228.8 -176.34 228.8 -176.81 227.25 C-189.88 180.66 -179.59 131.28 -156.38 89.88 C-152.96 84.03 -149.05 78.64 -144.88 73.31 C-144.22 72.45 -143.57 71.59 -142.9 70.7 C-139.11 65.81 -135.04 61.19 -130.88 56.62 C-130.16 55.84 -130.16 55.84 -129.44 55.04 C-103.35 26.87 -67.15 9.53 -29.88 2.31 C-29.02 2.13 -28.16 1.95 -27.28 1.77 C-18.19 0.01 -9.22 -0.04 0 0 Z " fill="#C297F6" transform="translate(476.875,255.6875)"/>
<path d="M0 0 C1.7 0.79 1.7 0.79 3.43 1.59 C17.24 8.13 28.59 16.97 39.52 27.57 C40.89 28.9 42.29 30.19 43.68 31.49 C50.51 37.99 55.83 45.17 61 53 C61.39 53.58 61.78 54.17 62.18 54.77 C83.04 86.29 89.62 126.34 82.58 163.22 C79.13 179.69 73.8 194.63 65 209 C64.42 209.94 64.42 209.94 63.84 210.91 C59.5 217.85 59.5 217.85 57 220 C55.23 219.56 55.23 219.56 53 218 C52.46 217.66 51.91 217.31 51.36 216.96 C49.44 215.74 47.56 214.47 45.69 213.19 C45.03 212.76 44.37 212.34 43.69 211.9 C41.82 210.61 41.82 210.61 39 208 C38.73 203.65 41.48 200.19 43.69 196.56 C59.47 169.65 65.13 135.95 57.84 105.37 C49.54 73.98 31.4 47.61 4 30 C3 29.35 2.01 28.71 0.98 28.04 C-18.7 15.95 -41.18 10.59 -64.12 10.62 C-65.15 10.63 -65.15 10.63 -66.19 10.63 C-77.28 10.67 -87.44 11.57 -98 15 C-98.76 15.24 -99.52 15.47 -100.31 15.72 C-132.24 25.79 -158.14 47.39 -173.93 76.95 C-189.31 106.67 -191.44 140.62 -181.64 172.5 C-173.99 196.1 -160.66 215.84 -141 231 C-140.16 231.67 -139.32 232.34 -138.45 233.03 C-119.64 247.44 -96.11 257.03 -72.3 257.08 C-71.26 257.09 -71.26 257.09 -70.19 257.1 C-66.66 257.13 -63.15 257.11 -59.62 257.01 C-49.17 256.9 -43.7 260.15 -36 267 C-34.7 267.94 -33.4 268.86 -32.06 269.74 C-31.05 270.45 -30.04 271.15 -29 271.88 C-27.95 272.59 -26.9 273.31 -25.81 274.05 C-25.21 274.7 -24.62 275.34 -24 276 C-26.86 278.87 -29.6 279.55 -33.52 280.17 C-34.62 280.34 -35.71 280.51 -36.83 280.69 C-38 280.85 -39.17 281.02 -40.38 281.19 C-42.19 281.44 -42.19 281.44 -44.04 281.71 C-76.62 286.02 -109.7 280.23 -138 263 C-138.58 262.65 -139.17 262.31 -139.77 261.95 C-172.52 242.45 -197.55 210.08 -207 173 C-207.76 169.94 -208.48 166.88 -209.19 163.81 C-209.35 163.09 -209.52 162.36 -209.69 161.62 C-217.82 124.54 -208.58 85.62 -188.67 53.88 C-183.5 45.99 -177.54 38.81 -171 32 C-170.18 31.12 -169.36 30.24 -168.52 29.33 C-150.63 10.62 -126.97 -2.59 -102 -9 C-101.09 -9.28 -100.18 -9.55 -99.24 -9.84 C-67.45 -19.42 -29.38 -14.53 0 0 Z " fill="#1D1F36" transform="translate(543,305)"/>
<path d="M0 0 C0.72 0.49 1.45 0.97 2.19 1.47 C2.97 1.97 3.75 2.47 4.55 2.99 C10.87 7.1 16.83 11.58 22.72 16.29 C25.79 18.7 28.93 21.02 32.07 23.35 C37.18 27.15 42.21 31.03 47.21 34.97 C55.32 41.37 63.53 47.27 72.38 52.6 C73.5 53.28 74.61 53.97 75.76 54.68 C97.35 67.55 121.23 74.77 146.32 68.91 C157.53 66.02 166.76 61.81 175.93 54.72 C177.37 53.62 178.87 52.6 180.38 51.6 C180.71 52.26 181.04 52.92 181.38 53.6 C178.09 61.53 172.87 68.1 167.38 74.6 C166.6 75.63 165.81 76.66 165.01 77.72 C151.56 92.45 132.38 101.13 112.62 102.84 C90.6 103.39 67.77 94.78 50.42 81.3 C46.48 79.09 44.71 79.48 40.38 80.6 C37.99 81.46 35.61 82.38 33.26 83.35 C26.88 85.85 20.48 87.76 13.82 89.35 C12.6 89.65 12.6 89.65 11.36 89.95 C-1.97 93.02 -14.99 93.91 -28.6 93.8 C-31.14 93.79 -33.68 93.78 -36.23 93.78 C-37.87 93.78 -39.51 93.77 -41.15 93.77 C-41.9 93.76 -42.64 93.76 -43.42 93.76 C-47.89 93.72 -52.24 93.57 -56.62 92.6 C-53.17 90.3 -52.19 90.41 -48.17 90.66 C-46.56 90.74 -46.56 90.74 -44.91 90.83 C-43.78 90.9 -42.65 90.96 -41.49 91.04 C-30.52 91.69 -30.52 91.69 -19.62 90.6 C-19.62 89.94 -19.62 89.28 -19.62 88.6 C-18.85 88.08 -18.09 87.57 -17.31 87.04 C-16.75 86.56 -16.19 86.09 -15.62 85.6 C-17.28 85.26 -18.95 84.92 -20.62 84.6 C-20.19 84.19 -19.76 83.79 -19.32 83.37 C-17.16 81.12 -17.13 79.86 -16.89 76.78 C-16.81 75.85 -16.73 74.92 -16.64 73.97 C-16.57 73 -16.5 72.03 -16.43 71.04 C-16.31 69.58 -16.31 69.58 -16.18 68.09 C-15.77 63.35 -15.77 63.35 -15.62 58.6 C-17.28 58.56 -18.95 58.56 -20.62 58.6 C-20.62 58.27 -20.62 57.94 -20.62 57.6 C-18.69 57.24 -16.76 56.96 -14.82 56.7 C-13.61 56.53 -12.41 56.36 -11.17 56.19 C-8.6 55.84 -6.04 55.49 -3.48 55.15 C-2.27 54.98 -1.06 54.81 0.18 54.63 C1.86 54.41 1.86 54.41 3.56 54.18 C6.57 53.74 6.57 53.74 9.38 51.6 C7.34 49.52 7.34 49.52 4.26 47.47 C3.24 46.75 2.23 46.02 1.19 45.28 C0.6 44.88 0.01 44.48 -0.6 44.07 C-2.62 42.6 -2.62 42.6 -4.92 40.54 C-13 33.7 -20.25 33.48 -30.31 33.66 C-32.51 33.66 -34.72 33.65 -36.93 33.64 C-38.91 33.63 -40.88 33.65 -42.85 33.68 C-43.77 33.65 -44.68 33.62 -45.62 33.6 C-45.62 33.27 -45.62 32.94 -45.62 32.6 C-43.22 32.38 -40.84 32.22 -38.43 32.1 C-31.95 31.85 -31.95 31.85 -25.62 30.6 C-25.62 29.94 -25.62 29.28 -25.62 28.6 C-24.96 28.6 -24.3 28.6 -23.62 28.6 C-23.29 27.94 -22.96 27.28 -22.62 26.6 C-22.29 26.93 -21.96 27.26 -21.62 27.6 C-21.25 25.6 -20.92 23.6 -20.62 21.6 C-20.07 19.19 -19.4 16.95 -18.62 14.6 C-17.96 14.6 -17.3 14.6 -16.62 14.6 C-16.28 11.14 -16.28 11.14 -16.62 7.6 C-17.28 7.27 -17.94 6.94 -18.62 6.6 C-19.28 5.26 -19.95 3.93 -20.62 2.6 C-24.35 0.73 -29.19 1.61 -33.32 1.72 C-34.07 1.74 -34.81 1.75 -35.58 1.76 C-36.26 1.77 -36.94 1.79 -37.63 1.81 C-39.98 1.56 -41.68 0.94 -43.62 -0.4 C-42.13 -0.8 -42.13 -0.8 -39.37 -1 C-38.39 -1.08 -37.41 -1.16 -36.39 -1.24 C-34.8 -1.35 -34.8 -1.35 -33.18 -1.46 C-31.14 -1.62 -29.1 -1.78 -27.06 -1.94 C-26.14 -2 -25.22 -2.07 -24.27 -2.14 C-6.31 -3.93 -6.31 -3.93 0 0 Z " fill="#9D6FF1" transform="translate(508.61767578125,529.402099609375)"/>
<path d="M0 0 C18.67 -3.39 41.85 1.51 59 9.41 C63.22 12.42 67.2 15.41 69 20.41 C69.84 28.82 69.94 36.28 65 43.41 C62.75 45.28 62.75 45.28 61 46.41 C61 47.07 61 47.73 61 48.41 C61.89 48.96 62.78 49.52 63.69 50.1 C68.33 53.02 71.28 57.24 73 62.41 C73.98 77.32 73.98 77.32 70 83.41 C64.19 89.78 58.27 92.37 50 94.41 C49.11 94.64 48.21 94.88 47.28 95.13 C38.34 97.42 29.43 99.05 20.25 100.03 C19.57 100.11 18.88 100.18 18.17 100.26 C9.69 101.08 1.47 100.99 -6.23 96.96 C-15.02 88.85 -15.34 73.77 -16.03 62.55 C-18.26 6.2 -18.26 6.2 0 0 Z " fill="#FAFAFB" transform="translate(538.9952087402344,672.5923767089844)"/>
<path d="M0 0 C0.82 0 1.63 0 2.47 0 C19.89 0.06 38.8 0.43 55.12 7.31 C55.12 7.97 55.12 8.63 55.12 9.31 C56.12 9.48 57.11 9.64 58.12 9.81 C59.12 9.98 60.11 10.14 61.12 10.31 C61.12 10.97 61.12 11.63 61.12 12.31 C62.9 13.16 62.9 13.16 65.06 13.81 C67.28 14.53 67.28 14.53 69.12 15.31 C69.46 15.97 69.78 16.63 70.12 17.31 C69.47 17.31 68.81 17.31 68.12 17.31 C67.96 17.97 67.79 18.63 67.62 19.31 C67.46 19.97 67.29 20.63 67.12 21.31 C66.47 21.31 65.81 21.31 65.12 21.31 C65.17 22.28 65.21 23.25 65.25 24.25 C65.21 25.26 65.17 26.27 65.12 27.31 C63.79 27.65 62.46 27.98 61.12 28.31 C60.29 31.27 60.29 31.27 61.12 34.31 C64.03 35.64 64.03 35.64 67.12 36.31 C67.46 36.97 67.78 37.63 68.12 38.31 C67.13 38.81 67.13 38.81 66.12 39.31 C65.79 40.3 65.47 41.29 65.12 42.31 C63.46 42.35 61.79 42.36 60.12 42.31 C60.12 42.97 60.12 43.63 60.12 44.31 C60.78 44.64 61.44 44.97 62.12 45.31 C56.86 45.03 52.27 44.11 47.25 42.5 C29.18 37.17 9.91 35.22 -8.88 36.31 C-9.91 36.37 -9.91 36.37 -10.97 36.43 C-28.98 37.63 -46.78 43.33 -62.88 51.31 C-63.99 51.86 -65.11 52.4 -66.25 52.96 C-74.72 57.3 -82.24 62.68 -89.88 68.31 C-91.36 69.3 -91.36 69.3 -92.88 70.31 C-94.26 66.61 -93.76 63.82 -92.62 60.12 C-92.37 59.27 -92.12 58.41 -91.86 57.52 C-90.88 55.31 -90.88 55.31 -87.88 53.31 C-87.21 52.32 -86.56 51.33 -85.88 50.31 C-84.88 50.31 -83.89 50.31 -82.88 50.31 C-83.14 52.32 -83.48 54.32 -83.88 56.31 C-83.55 56.97 -83.21 57.63 -82.88 58.31 C-80.29 57.28 -78.2 55.86 -75.88 54.31 C-74.88 54.31 -73.89 54.31 -72.88 54.31 C-72.35 52.5 -72.35 52.5 -72.44 50.31 C-72.42 49.57 -72.4 48.83 -72.38 48.06 C-72.62 47.2 -72.62 47.2 -72.88 46.31 C-74.19 46.31 -75.51 46.31 -76.88 46.31 C-77.31 43.31 -77.31 43.31 -76.88 40.31 C-75.88 40.31 -74.89 40.31 -73.88 40.31 C-73.88 40.97 -73.88 41.63 -73.88 42.31 C-72.88 41.82 -72.88 41.82 -71.88 41.31 C-71.71 40.47 -71.55 39.62 -71.38 38.75 C-71.21 37.95 -71.05 37.14 -70.88 36.31 C-70.21 36.31 -69.56 36.31 -68.88 36.31 C-68.36 34.37 -68.36 34.37 -68.19 32 C-68.1 31.2 -68.01 30.4 -67.93 29.57 C-67.86 26.79 -68.49 24.9 -70 22.56 C-72.93 20.61 -75.5 21.78 -78.88 22.31 C-81.31 21.47 -81.31 21.47 -82.88 20.31 C-79.96 18.63 -77.15 17.31 -74.06 16 C-72.66 15.39 -72.66 15.39 -71.24 14.78 C-57.8 9.04 -44.2 5.09 -29.88 2.31 C-29.02 2.13 -28.16 1.95 -27.28 1.77 C-18.19 0.01 -9.22 -0.04 0 0 Z " fill="#AF82F1" transform="translate(476.875,255.6875)"/>
<path d="M0 0 C5.63 -0.19 10.13 -0.18 15.14 2.65 C21.81 10.65 24.87 21.27 28.37 30.94 C30.88 37.75 33.97 44.3 37.05 50.87 C38.64 54.29 40.18 57.72 41.73 61.15 C43.84 65.79 45.96 70.43 48.09 75.06 C48.92 76.88 49.75 78.7 50.58 80.53 C51.14 81.73 51.14 81.73 51.71 82.96 C54.14 88.31 54.14 88.31 54.14 91.65 C47.64 93.73 38.6 93.84 32.14 91.65 C27.55 87.26 26.31 80.68 25.14 74.65 C25.14 73.99 25.14 73.33 25.14 72.65 C22.02 72.35 18.98 72.2 15.84 72.14 C14.42 72.11 14.42 72.11 12.97 72.08 C10.96 72.05 8.95 72.03 6.94 72.01 C4.87 71.98 2.81 71.93 0.74 71.86 C-2.22 71.76 -5.19 71.73 -8.16 71.7 C-9.08 71.66 -10.01 71.62 -10.96 71.58 C-13.55 71.6 -15.46 71.66 -17.86 72.65 C-19.69 75.48 -20.27 78.36 -20.86 81.65 C-22.65 88.74 -22.65 88.74 -24.86 91.65 C-28.68 93.05 -32.21 92.87 -36.23 92.65 C-37.28 92.66 -38.33 92.66 -39.41 92.67 C-42.06 92.6 -44.33 92.49 -46.86 91.65 C-46.82 88.93 -46.18 87.99 -44.86 85.65 C-44.14 84.02 -43.43 82.38 -42.74 80.74 C-41.82 78.69 -40.9 76.64 -39.98 74.59 C-39.19 72.83 -38.41 71.07 -37.62 69.32 C-37.04 68.01 -36.46 66.7 -35.87 65.4 C-33.17 59.35 -30.48 53.3 -27.79 47.25 C-27.35 46.25 -26.91 45.26 -26.45 44.24 C-24.67 40.22 -22.88 36.2 -21.1 32.17 C-20.67 31.21 -20.24 30.25 -19.8 29.25 C-19.38 28.31 -18.96 27.37 -18.53 26.4 C-17.72 24.57 -16.9 22.74 -16.07 20.92 C-14.44 17.29 -12.88 13.71 -11.53 9.96 C-9.18 3.55 -6.96 1.01 0 0 Z " fill="#FBFBFB" transform="translate(443.85546875,675.349365234375)"/>
<path d="M0 0 C1.01 0.33 2.02 0.66 3.06 1 C5.82 2.08 7.88 2.92 10 5 C10.09 8.47 8.61 11 7 14 C6.57 15.2 6.13 16.39 5.69 17.62 C5.13 18.41 4.57 19.19 4 20 C-0.76 20.11 -4.69 17.85 -9 16 C-17.29 14.31 -27.04 13.16 -34.59 17.66 C-36.34 19.12 -36.34 19.12 -37.25 22.5 C-37.33 25.99 -37.33 25.99 -35.32 28.09 C-32.76 30.2 -30.72 31.07 -27.56 32.06 C-26.5 32.4 -25.44 32.73 -24.35 33.07 C-21.08 33.98 -17.81 34.73 -14.5 35.44 C-5.24 37.49 4.26 40.41 10.58 47.87 C14.73 54.64 15.11 61.22 14 69 C11.88 75.43 7.72 80.43 2 84 C-12.92 91.4 -28.69 92.04 -44.53 87.27 C-57.67 82.45 -57.67 82.45 -59.95 78.24 C-60.03 74.79 -58.77 72.26 -57.38 69.12 C-56.87 67.93 -56.36 66.74 -55.84 65.51 C-55.23 64.68 -54.62 63.85 -54 63 C-51.63 63.46 -51.63 63.46 -49 65 C-48.1 65.41 -47.21 65.83 -46.28 66.25 C-44.43 67.13 -42.57 68 -40.72 68.88 C-35.08 71.2 -29.58 71.24 -23.56 71.31 C-22.31 71.36 -22.31 71.36 -21.04 71.4 C-15.57 71.46 -12.24 70.81 -8 67 C-7.08 63.5 -7.08 63.5 -8 60 C-11.77 56.2 -15.89 54.84 -20.94 53.5 C-21.68 53.29 -22.43 53.08 -23.2 52.86 C-26.75 51.86 -30.3 50.93 -33.88 50.04 C-42.76 47.76 -51.51 44.67 -56.62 36.5 C-59.43 29.57 -59.39 21.01 -56.96 14.02 C-52.18 5.21 -44.31 0.9 -35 -2 C-23.5 -4.35 -11.08 -3.89 0 0 Z " fill="#F9F9FA" transform="translate(704,679)"/>
<path d="M0 0 C2.81 1.38 2.81 1.38 5 4 C5.84 7.34 6.22 10.56 6 14 C5.34 14.99 4.68 15.98 4 17 C1.1 17.17 -1.67 16.93 -4.57 16.71 C-5.37 16.81 -6.17 16.9 -7 17 C-8.27 18.92 -8.27 18.92 -8 21 C-6.68 21 -5.36 21 -4 21 C-4.5 22.49 -4.5 22.49 -5 24 C-7.06 23.56 -7.06 23.56 -9 23 C-9 23.66 -9 24.32 -9 25 C-8.01 25 -7.02 25 -6 25 C-6 25.66 -6 26.32 -6 27 C-5.34 27 -4.68 27 -4 27 C-4 27.66 -4 28.32 -4 29 C-3.34 29 -2.68 29 -2 29 C-2.31 30.49 -2.31 30.49 -2.62 32 C-2.81 33.49 -2.81 33.49 -3 35 C-1.68 35 -0.36 35 1 35 C0.38 37.06 0.38 37.06 -1 39 C-1.66 38.67 -2.32 38.34 -3 38 C-3.33 38.99 -3.66 39.98 -4 41 C-7 42 -7 42 -9.69 41.44 C-10.45 40.96 -11.21 40.49 -12 40 C-12.44 36.94 -12.44 36.94 -12 34 C-11.34 33.67 -10.68 33.34 -10 33 C-10 33.66 -10 34.32 -10 35 C-9.34 35 -8.68 35 -8 35 C-8.66 34.01 -9.32 33.02 -10 32 C-10.99 32 -11.98 32 -13 32 C-13.33 32.99 -13.66 33.98 -14 35 C-14.99 35 -15.98 35 -17 35 C-17.1 35.74 -17.21 36.49 -17.31 37.25 C-18.29 41.17 -20.7 41.92 -24 44 C-23.67 44.66 -23.34 45.32 -23 46 C-23.5 46.99 -23.5 46.99 -24 48 C-23.34 48 -22.68 48 -22 48 C-22 48.99 -22 49.98 -22 51 C-22.66 51 -23.32 51 -24 51 C-24 52.32 -24 53.64 -24 55 C-23.26 55.72 -22.51 56.44 -21.75 57.19 C-21.17 57.79 -20.6 58.38 -20 59 C-21.56 59.56 -21.56 59.56 -24 60 C-24.71 60.8 -24.71 60.8 -25.44 61.62 C-26.21 62.31 -26.21 62.31 -27 63 C-28.68 62.71 -30.34 62.37 -32 62 C-37.64 61.33 -42.46 61.06 -47.25 64.44 C-50.8 67.48 -53.39 71.08 -56.15 74.82 C-61.14 80.71 -68.17 84.58 -75.85 85.25 C-81.77 85.49 -81.77 85.49 -84 85 C-83.61 82.12 -82.53 79.96 -81 77.52 C-80.39 76.53 -80.39 76.53 -79.76 75.52 C-79.33 74.81 -78.89 74.1 -78.44 73.38 C-65.3 51.46 -57.98 27.99 -54.37 2.76 C-54.25 2.18 -54.13 1.6 -54 1 C-53.67 1 -53.34 1 -53 1 C-52.7 4.01 -52.48 6.99 -52.31 10 C-52.25 10.86 -52.19 11.72 -52.13 12.6 C-52.01 14.73 -51.99 16.87 -52 19 C-52.66 19 -53.32 19 -54 19 C-54.38 20.99 -54.71 22.99 -55 25 C-55.33 25.33 -55.66 25.66 -56 26 C-56.33 27.89 -56.6 29.78 -56.81 31.69 C-56.94 32.72 -57.07 33.76 -57.21 34.82 C-57.1 35.9 -57.1 35.9 -57 37 C-54.94 36.53 -54.94 36.53 -53 35 C-52.67 34.34 -52.34 33.68 -52 33 C-51.34 33 -50.68 33 -50 33 C-50 32.34 -50 31.68 -50 31 C-50.66 30.67 -51.32 30.34 -52 30 C-51.34 29.34 -50.68 28.68 -50 28 C-50 27.01 -50 26.02 -50 25 C-49.01 24.67 -48.02 24.34 -47 24 C-46.61 25.65 -46.28 27.32 -46 29 C-45.34 29.33 -44.68 29.66 -44 30 C-44 30.99 -44 31.98 -44 33 C-42.68 33 -41.36 33 -40 33 C-39.33 30.04 -39.33 30.04 -40 27 C-40.66 26.86 -41.32 26.71 -42 26.56 C-42.66 26.38 -43.32 26.19 -44 26 C-44.38 22.44 -44.38 22.44 -44 19 C-43.34 19 -42.68 19 -42 19 C-42 20.32 -42 21.64 -42 23 C-41.34 23 -40.68 23 -40 23 C-39.69 22.32 -39.38 21.64 -39.06 20.94 C-38.54 19.98 -38.54 19.98 -38 19 C-37.01 19.33 -36.02 19.66 -35 20 C-34.01 19.34 -33.02 18.68 -32 18 C-30.97 17.86 -29.94 17.71 -28.88 17.56 C-27.93 17.38 -26.98 17.19 -26 17 C-25.5 15.51 -25.5 15.51 -25 14 C-24.34 14.66 -23.68 15.32 -23 16 C-22.01 15.34 -21.02 14.68 -20 14 C-19.01 14.5 -19.01 14.5 -18 15 C-18 15.66 -18 16.32 -18 17 C-14.46 17.08 -14.46 17.08 -11 16 C-10.5 13.5 -10.5 13.5 -11 11 C-10.67 10.67 -10.34 10.34 -10 10 C-10.17 8.62 -10.38 7.24 -10.62 5.88 C-10.75 4.6 -10.87 3.32 -11 2 C-10.01 2.33 -9.02 2.66 -8 3 C-8 2.34 -8 1.68 -8 1 C-5.15 -0.43 -3.17 -0.31 0 0 Z " fill="#1D1E38" transform="translate(716,459)"/>
<path d="M0 0 C4.67 -0.13 8.94 0.07 13.2 2.12 C15.59 6.54 14.82 10.67 14.05 15.45 C13.67 17.87 13.42 20.28 13.21 22.72 C12.91 26.12 12.58 29.51 12.22 32.9 C9.77 53.74 9.77 53.74 13.2 74.12 C16.93 77.88 21.03 78.2 26.14 78.44 C34.65 78.19 42.94 76.2 51.22 74.35 C53.74 73.92 55.69 73.63 58.2 74.12 C60.69 76.42 61.32 78.67 61.67 81.99 C61.55 85.82 60.72 88.2 58.2 91.12 C48.33 96.67 36.27 97.16 25.2 97.74 C24.42 97.8 23.64 97.85 22.84 97.9 C13.04 98.51 1.82 98.78 -6.4 92.59 C-15.14 83.4 -13.59 64.65 -13.4 52.99 C-13.34 50.86 -13.29 48.74 -13.24 46.62 C-13.21 44.47 -13.18 42.32 -13.15 40.17 C-13.05 34.96 -12.79 29.77 -12.39 24.57 C-12.24 22.58 -12.12 20.59 -12.03 18.6 C-11.06 1.43 -11.06 1.43 0 0 Z " fill="#FBFCFC" transform="translate(313.79778957366943,675.8813552856445)"/>
<path d="M0 0 C1.84 0.49 1.84 0.49 4.38 1.88 C5.3 2.37 6.23 2.87 7.18 3.38 C9.65 4.8 12.04 6.29 14.44 7.81 C34.78 20.16 58.5 25.79 81.94 20.31 C93.15 17.42 102.38 13.21 111.55 6.13 C112.99 5.03 114.49 4 116 3 C116.5 3.99 116.5 3.99 117 5 C113.71 12.93 108.49 19.5 103 26 C102.22 27.03 101.43 28.06 100.62 29.12 C87.35 43.66 67.66 53.08 47.96 54.17 C40.83 54.21 33.91 53.9 27 52 C27 51.67 27 51.34 27 51 C27.99 51.04 28.98 51.08 30 51.12 C31.49 51.06 31.49 51.06 33 51 C33 50.01 33 49.02 33 48 C32.34 48 31.68 48 31 48 C31 45.67 31 43.33 31 41 C30.34 40.67 29.68 40.34 29 40 C29 38.68 29 37.36 29 36 C29.66 36 30.32 36 31 36 C31 35.01 31 34.02 31 33 C31 32.01 31 31.02 31 30 C31.66 30 32.32 30 33 30 C33.5 30.99 33.5 30.99 34 32 C34.1 31.4 34.21 30.8 34.31 30.19 C34.54 29.47 34.77 28.74 35 28 C35.66 27.86 36.32 27.71 37 27.56 C37.66 27.38 38.32 27.19 39 27 C40.57 24.6 40.57 24.6 40 22 C37.81 21.39 35.71 21.3 33.44 21.17 C30.36 20.96 27.8 20.29 25 19 C25 18.01 25 17.02 25 16 C23.68 16 22.36 16 21 16 C21 16.66 21 17.32 21 18 C20.34 18 19.68 18 19 18 C19.19 17.17 19.37 16.35 19.56 15.5 C19.71 14.67 19.85 13.85 20 13 C19.01 13 18.02 13 17 13 C17 12.34 17 11.68 17 11 C14.72 10.67 12.47 10.62 10.16 10.54 C9.45 10.36 8.74 10.18 8 10 C6.91 8.02 6.91 8.02 6 6 C4.97 5.67 3.94 5.34 2.88 5 C1.93 4.67 0.98 4.34 0 4 C0 2.68 0 1.36 0 0 Z " fill="#8050E9" transform="translate(573,578)"/>
<path d="M0 0 C3.7 2.03 5.65 3.48 8 7 C8.53 12.24 8.34 17.91 7 23 C6.34 23 5.68 23 5 23 C5 23.99 5 24.98 5 26 C2.32 27.34 0.54 26.92 -2.45 26.68 C-3.52 26.62 -4.6 26.56 -5.71 26.5 C-8 26.38 -10.28 26.21 -12.57 25.99 C-16.91 25.8 -16.91 25.8 -21 27 C-22.14 31.09 -21.47 34.84 -21 39 C-21.32 41.38 -21.32 41.38 -21.75 43.31 C-21.83 44.2 -21.91 45.09 -22 46 C-20 45.9 -20 45.9 -18 45 C-18 45.66 -18 46.32 -18 47 C-18.66 47 -19.32 47 -20 47 C-20 47.66 -20 48.32 -20 49 C-21.81 49.56 -21.81 49.56 -24 50 C-25.49 50.5 -25.49 50.5 -27 51 C-27.42 54.04 -27.42 54.04 -27 57 C-26.34 57 -25.68 57 -25 57 C-25 56.34 -25 55.68 -25 55 C-23.33 55.31 -21.66 55.64 -20 56 C-19.34 55.67 -18.68 55.34 -18 55 C-18.39 57.8 -19.1 60.31 -20 63 C-22.94 64.12 -22.94 64.12 -26 65 C-26.99 65.5 -26.99 65.5 -28 66 C-28 65.01 -28 64.02 -28 63 C-28.66 63 -29.32 63 -30 63 C-30 62.34 -30 61.68 -30 61 C-31.49 60.5 -31.49 60.5 -33 60 C-33 59.34 -33 58.68 -33 58 C-36.77 59.26 -37.86 60.84 -40.07 64.02 C-41.53 67.13 -40.7 69.74 -40 73 C-40.66 73.66 -41.32 74.32 -42 75 C-43.84 77.45 -43.84 77.45 -44 80 C-40.99 80.63 -38.02 80.55 -35 80 C-35 79.34 -35 78.68 -35 78 C-34.01 78 -33.02 78 -32 78 C-32 77.34 -32 76.68 -32 76 C-29.88 76.25 -29.88 76.25 -28 77 C-35.56 84.56 -46.86 90.8 -57 94 C-57.99 94 -58.98 94 -60 94 C-60 93.34 -60 92.68 -60 92 C-59.01 92 -58.02 92 -57 92 C-57 90.68 -57 89.36 -57 88 C-55.25 87.46 -55.25 87.46 -53 87.38 C-50.83 87.32 -50.83 87.32 -49 87 C-49 86.34 -49 85.68 -49 85 C-50.21 85.31 -50.21 85.31 -51.44 85.62 C-52.28 85.75 -53.13 85.87 -54 86 C-55.28 83.54 -54.98 81.46 -54.88 78.69 C-54.92 77.8 -54.96 76.91 -55 76 C-55.99 76.33 -56.98 76.66 -58 77 C-65.45 77.94 -72.94 78.1 -80.44 78.12 C-81.57 78.13 -81.57 78.13 -82.73 78.14 C-86.94 78.13 -90.85 77.75 -95 77 C-96.58 77.09 -96.58 77.09 -98.19 77.19 C-101 77 -101 77 -103 74.94 C-103.33 74.3 -103.66 73.66 -104 73 C-102.08 73.05 -102.08 73.05 -98.81 73.75 C-78.82 77.31 -61.09 74.46 -44.02 63 C-35.97 56.83 -27.16 47.89 -24 38 C-23.45 32.07 -24.47 27.07 -28.34 22.38 C-28.76 21.9 -29.19 21.43 -29.62 20.94 C-30.08 20.3 -30.53 19.66 -31 19 C-27.47 19.66 -24.69 20.61 -21.56 22.38 C-20.79 22.68 -20.79 22.68 -20 23 C-20 21.68 -20 20.36 -20 19 C-20.66 19 -21.32 19 -22 19 C-22 17.68 -22 16.36 -22 15 C-21.01 15 -20.02 15 -19 15 C-18.3 13.23 -18.3 13.23 -18 11.06 C-17.62 8.85 -17.62 8.85 -17 7 C-16.01 6.67 -15.02 6.34 -14 6 C-12.31 4.35 -10.65 2.69 -9 1 C-5.89 -0.55 -3.44 -0.29 0 0 Z " fill="#1F1D40" transform="translate(720,503)"/>
<path d="M0 0 C2.81 1.38 2.81 1.38 5 4 C5.84 7.34 6.22 10.56 6 14 C5.34 14.99 4.68 15.98 4 17 C1.1 17.17 -1.67 16.93 -4.57 16.71 C-5.37 16.81 -6.17 16.9 -7 17 C-8.27 18.92 -8.27 18.92 -8 21 C-6.68 21 -5.36 21 -4 21 C-4.5 22.49 -4.5 22.49 -5 24 C-7.06 23.56 -7.06 23.56 -9 23 C-9 23.66 -9 24.32 -9 25 C-8.01 25 -7.02 25 -6 25 C-6 25.66 -6 26.32 -6 27 C-5.34 27 -4.68 27 -4 27 C-4 27.66 -4 28.32 -4 29 C-3.34 29 -2.68 29 -2 29 C-2.21 29.99 -2.41 30.98 -2.62 32 C-2.81 33.49 -2.81 33.49 -3 35 C-1.68 35 -0.36 35 1 35 C0.38 37.06 0.38 37.06 -1 39 C-1.99 38.5 -1.99 38.5 -3 38 C-3.33 38.99 -3.66 39.98 -4 41 C-7 42 -7 42 -9.69 41.44 C-10.45 40.96 -11.21 40.49 -12 40 C-12.44 36.94 -12.44 36.94 -12 34 C-11.01 33.5 -11.01 33.5 -10 33 C-10 33.66 -10 34.32 -10 35 C-9.34 35 -8.68 35 -8 35 C-8.66 34.01 -9.32 33.02 -10 32 C-10.99 32 -11.98 32 -13 32 C-13.33 32.99 -13.66 33.98 -14 35 C-14.99 35 -15.98 35 -17 35 C-17.14 35.76 -17.29 36.53 -17.44 37.31 C-18 40 -18 40 -19.5 41.88 C-24.44 44.1 -29.46 42.41 -34.5 41.06 C-37.5 38.59 -37.44 37.81 -37.81 34.06 C-37.84 33.21 -37.87 32.35 -37.89 31.47 C-37.9 29.02 -37.9 29.02 -38.62 26.85 C-38.75 26.24 -38.87 25.63 -39 25 C-36.92 21.88 -35.13 20.09 -32 18 C-30.97 17.86 -29.94 17.71 -28.88 17.56 C-27.93 17.38 -26.98 17.19 -26 17 C-25.67 16.01 -25.34 15.02 -25 14 C-24.34 14.66 -23.68 15.32 -23 16 C-22.01 15.34 -21.02 14.68 -20 14 C-19.34 14.33 -18.68 14.66 -18 15 C-18 15.66 -18 16.32 -18 17 C-14.46 17.08 -14.46 17.08 -11 16 C-10.5 13.5 -10.5 13.5 -11 11 C-10.67 10.67 -10.34 10.34 -10 10 C-10.17 8.62 -10.38 7.24 -10.62 5.88 C-10.75 4.6 -10.87 3.32 -11 2 C-10.01 2.33 -9.02 2.66 -8 3 C-8 2.34 -8 1.68 -8 1 C-5.15 -0.43 -3.17 -0.31 0 0 Z " fill="#1D1C3B" transform="translate(716,459)"/>
<path d="M0 0 C5.87 1.91 8.87 5.94 12 11 C14.06 17.17 14.21 25.75 12 31.94 C6.95 39.68 0.77 42.97 -7.88 45.56 C-10.52 46.11 -12.99 46.13 -15.69 46.13 C-17.4 46.13 -17.4 46.13 -19.14 46.14 C-20.98 46.14 -20.98 46.14 -22.86 46.13 C-24.75 46.13 -24.75 46.13 -26.68 46.14 C-29.34 46.14 -32 46.14 -34.65 46.13 C-38.07 46.12 -41.49 46.13 -44.91 46.13 C-48.17 46.14 -51.42 46.14 -54.67 46.13 C-56.52 46.14 -56.52 46.14 -58.41 46.14 C-60.1 46.13 -60.1 46.13 -61.83 46.13 C-62.83 46.13 -63.83 46.13 -64.86 46.13 C-65.57 46.09 -66.27 46.04 -67 46 C-67 45.67 -67 45.34 -67 45 C-65.42 44.9 -63.84 44.87 -62.26 44.87 C-61.22 44.87 -60.19 44.87 -59.12 44.86 C-57.43 44.86 -57.43 44.86 -55.7 44.86 C-53.33 44.84 -50.97 44.82 -48.61 44.8 C-44.86 44.77 -41.12 44.75 -37.37 44.75 C-33.77 44.75 -30.17 44.71 -26.57 44.67 C-25.44 44.68 -24.32 44.69 -23.15 44.69 C-21.59 44.67 -21.59 44.67 -20 44.64 C-18.62 44.64 -18.62 44.64 -17.21 44.63 C-14.76 44.21 -14.76 44.21 -13.68 41.67 C-12.84 38.91 -12.84 38.91 -13.12 35.62 C-13.08 34.76 -13.04 33.89 -13 33 C-10.94 33.31 -10.94 33.31 -9 34 C-9.33 33.01 -9.66 32.02 -10 31 C-12.68 31.09 -12.68 31.09 -15.75 31.81 C-23.31 33.35 -23.31 33.35 -27 33 C-27 32.34 -27 31.68 -27 31 C-29.05 30.73 -29.05 30.73 -31.59 30.84 C-32.54 30.85 -33.49 30.86 -34.46 30.87 C-35.47 30.89 -36.47 30.92 -37.5 30.94 C-39.47 30.97 -41.44 31 -43.41 31.03 C-44.29 31.05 -45.17 31.06 -46.07 31.08 C-46.71 31.05 -47.34 31.03 -48 31 C-48 30.67 -48 30.34 -48 30 C-45.82 29.87 -43.64 29.82 -41.46 29.79 C-40.08 29.76 -38.7 29.73 -37.32 29.7 C-35.14 29.66 -32.96 29.63 -30.77 29.6 C-28.67 29.57 -26.57 29.52 -24.46 29.48 C-23.2 29.46 -21.94 29.44 -20.64 29.42 C-16.44 28.94 -13.75 27.93 -10 26 C-8.15 22.29 -8.41 18.04 -9 14 C-11.43 11.3 -13.37 10.26 -16.69 8.88 C-17.12 8.59 -17.55 8.3 -18 8 C-15.25 6.69 -15.25 6.69 -12 6 C-12 6.99 -12 7.98 -12 9 C-11.01 9 -10.02 9 -9 9 C-9 9.66 -9 10.32 -9 11 C-6 11.92 -6 11.92 -3 11 C-2.6 8.57 -2.76 6.42 -2.98 3.97 C-2.99 2.99 -2.99 2.99 -3 2 C-2.34 2 -1.68 2 -1 2 C-0.67 1.34 -0.34 0.68 0 0 Z " fill="#F8F9FA" transform="translate(599,721)"/>
<path d="M0 0 C2.71 -0.09 5.31 -0.11 8.01 0 C9.04 0.04 9.04 0.04 10.08 0.08 C18.05 0.48 25.7 1.14 32.36 5.95 C34.65 9.36 34.02 13.65 33.45 17.57 C31.06 21.11 28.4 22.2 24.45 23.57 C19.2 24.45 13.94 24.84 8.63 25.07 C7.57 25.11 7.57 25.11 6.48 25.16 C1.93 25.27 -2.21 25.08 -6.55 23.57 C-10.33 19.32 -10.48 14.93 -10.22 9.45 C-8.87 2.89 -6.63 0.88 0 0 Z " fill="#1E2132" transform="translate(557.5546875,727.43359375)"/>
<path d="M0 0 C1.37 0.02 2.75 0.05 4.12 0.09 C4.81 0.11 5.5 0.13 6.21 0.14 C13.61 0.4 19.45 0.77 25.49 5.53 C27.05 8.63 26.78 11.11 26.49 14.53 C24.7 17.28 23.44 19.06 20.49 20.53 C10.7 21.85 -0.89 23.33 -10.51 20.53 C-13.49 17.66 -14.15 15.11 -14.32 11.03 C-13.82 1.57 -8.63 0.28 0 0 Z " fill="#1B1E2F" transform="translate(561.505126953125,692.46875)"/>
<path d="M0 0 C0.66 0 1.32 0 2 0 C3.12 2.14 4.1 4.24 5.04 6.46 C5.32 7.12 5.61 7.77 5.9 8.45 C6.51 9.85 7.11 11.25 7.71 12.65 C8.62 14.8 9.55 16.93 10.48 19.07 C11.06 20.43 11.64 21.79 12.23 23.14 C12.5 23.79 12.78 24.43 13.07 25.09 C14.26 27.91 15 29.9 15 33 C11.01 33.67 6.97 33.56 2.93 33.56 C0.88 33.56 -1.17 33.62 -3.22 33.67 C-4.49 33.68 -5.76 33.69 -7.07 33.69 C-8.85 33.71 -8.85 33.71 -10.66 33.73 C-11.43 33.49 -12.2 33.25 -13 33 C-12.53 30.36 -12.53 30.36 -11 27 C-10.4 25.44 -10.4 25.44 -9.79 23.84 C-8.62 20.89 -7.45 17.95 -6.26 15.01 C-5.75 13.74 -5.24 12.48 -4.74 11.21 C-4.01 9.37 -3.27 7.53 -2.53 5.7 C-2.09 4.6 -1.66 3.51 -1.21 2.38 C-0.81 1.6 -0.41 0.81 0 0 Z " fill="#232636" transform="translate(446,699)"/>
<path d="M0 0 C3.7 2.03 5.65 3.48 8 7 C8.6 11.57 8.53 15.73 6.75 20 C4.34 22.75 2.22 23.81 -1.4 24.37 C-8.29 24.55 -8.29 24.55 -12.06 21.62 C-15.54 16.91 -15.83 12.77 -15 7 C-10.75 1.49 -6.96 -0.71 0 0 Z " fill="#6945C3" transform="translate(720,503)"/>
<path d="M0 0 C3.49 1.67 4.83 2.74 7 6 C7.44 9.38 7.44 9.38 7 13 C4.02 16.61 1.88 18.79 -2.81 19.31 C-6.73 18.93 -8.21 17.71 -11 15 C-12.55 11.9 -12.29 9.42 -12 6 C-8.56 0.73 -6.24 -0.49 0 0 Z " fill="#8459E5" transform="translate(692,480)"/>
<path d="M0 0 C1.32 0 2.64 0 4 0 C4.33 0.66 4.66 1.32 5 2 C5.83 2.06 6.65 2.12 7.5 2.19 C8.33 2.46 9.15 2.72 10 3 C10.37 5.33 10.7 7.66 11 10 C12.32 10 13.64 10 15 10 C15 9.01 15 8.02 15 7 C15.66 7 16.32 7 17 7 C17.35 12.43 17.35 12.43 17 15 C14.52 17.48 13.3 17.42 9.88 17.75 C8.96 17.85 8.05 17.95 7.12 18.05 C6.42 18.03 5.72 18.02 5 18 C5 17.34 5 16.68 5 16 C4.34 16 3.68 16 3 16 C3 15.01 3 14.02 3 13 C2.01 13 1.02 13 0 13 C-2.06 8.68 -2.18 5.6 -1 1 C-0.67 0.67 -0.34 0.34 0 0 Z " fill="#7947ED" transform="translate(710,507)"/>
<path d="M0 0 C2.94 2.06 2.94 2.06 5 5 C5 8.52 4.63 10.85 2.94 13.94 C-0.26 15.69 -3.45 15.65 -7 15 C-9.92 12.72 -9.98 11.17 -10.44 7.5 C-10 4 -10 4 -8.38 1.56 C-5.24 -0.5 -3.68 -0.68 0 0 Z " fill="#7B50E0" transform="translate(716,551)"/>
<path d="M0 0 C0 0.33 0 0.66 0 1 C-1.24 0.97 -1.24 0.97 -2.5 0.94 C-3.33 0.96 -4.15 0.98 -5 1 C-5 1.66 -5 2.32 -5 3 C-8.18 4.04 -11.25 4.89 -14.56 5.38 C-15.04 5.58 -15.51 5.79 -16 6 C-15.65 6.7 -15.3 7.4 -14.94 8.12 C-14.63 8.74 -14.32 9.36 -14 10 C-15.67 9.71 -17.34 9.36 -19 9 C-21.28 9.15 -23.52 9.45 -25.78 9.75 C-28.53 10.06 -31.24 10 -34 10 C-34.66 10.33 -35.32 10.66 -36 11 C-38.92 11.03 -41.81 11 -44.73 10.91 C-45.59 10.89 -46.45 10.87 -47.34 10.85 C-49.17 10.8 -50.99 10.75 -52.81 10.7 C-55.62 10.63 -58.43 10.56 -61.23 10.49 C-63 10.45 -64.77 10.4 -66.54 10.35 C-67.39 10.33 -68.23 10.31 -69.11 10.29 C-71.07 10.23 -73.04 10.12 -75 10 C-75 9.67 -75 9.34 -75 9 C-73.06 8.87 -71.12 8.82 -69.18 8.79 C-67.93 8.76 -66.68 8.74 -65.4 8.71 C-64.73 8.7 -64.07 8.68 -63.38 8.67 C-44.83 8.27 -27.43 6.5 -9.66 0.89 C-8.83 0.63 -8 0.38 -7.15 0.11 C-6.42 -0.13 -5.69 -0.37 -4.94 -0.61 C-3 -1 -3 -1 0 0 Z " fill="#2D2451" transform="translate(542,614)"/>
<path d="M0 0 C0.66 0 1.32 0 2 0 C2 1.32 2 2.64 2 4 C2.66 4 3.32 4 4 4 C6.84 10.17 7.78 16.17 8.56 22.88 C8.79 24.75 9.02 26.62 9.25 28.49 C9.37 29.42 9.48 30.35 9.6 31.31 C9.97 33.8 10.49 36.19 11.07 38.64 C12.45 45.24 12.3 51.92 12.26 58.63 C12.25 60.89 12.26 63.15 12.27 65.41 C12.27 66.85 12.27 68.3 12.27 69.74 C12.26 71.04 12.26 72.34 12.26 73.68 C11.85 78.97 11.85 78.97 10 81 C9.78 78.57 9.75 76.24 9.76 73.81 C9.75 72.16 9.74 70.5 9.72 68.85 C9.72 67.97 9.71 67.08 9.71 66.17 C9.55 45.26 7.87 25.37 0.78 5.5 C0 3 0 3 0 0 Z " fill="#241956" transform="translate(653,376)"/>
<path d="M0 0 C1.88 1.06 1.88 1.06 3 3 C3.38 6.56 3.38 6.56 3 10 C-0.67 12.45 -2.66 12.32 -7 12 C-9 10 -9 10 -9.31 6.56 C-9 3 -9 3 -7.88 1.06 C-5.11 -0.5 -3.12 -0.39 0 0 Z " fill="#7E59D2" transform="translate(716,461)"/>
<path d="M0 0 C3 1 3 1 4.28 3.41 C4.68 4.43 5.09 5.45 5.5 6.5 C5.9 7.5 6.3 8.5 6.72 9.53 C7.14 10.68 7.56 11.82 8 13 C8.25 13.66 8.51 14.31 8.77 14.99 C10.79 20.51 11.42 25.28 11.33 31.13 C11.33 31.96 11.32 32.8 11.32 33.66 C11.32 35.4 11.3 37.15 11.28 38.9 C11.25 41.56 11.24 44.22 11.23 46.87 C11.23 48.58 11.21 50.29 11.2 52 C11.2 53.18 11.2 53.18 11.19 54.38 C11.16 56.59 11.1 58.79 11 61 C10.97 61.74 10.94 62.47 10.9 63.23 C10.63 66.81 10.32 68.65 7.86 71.33 C7.25 71.55 6.63 71.77 6 72 C6.25 69.99 6.25 69.99 7.22 66.65 C9.19 58.92 9.5 51.61 9.44 43.62 C9.43 42.94 9.43 42.26 9.43 41.56 C9.35 27.73 7.15 16.56 0.95 4.07 C0 2 0 2 0 0 Z " fill="#8361CA" transform="translate(558,396)"/>
<path d="M0 0 C0.86 -0 1.73 -0 2.61 -0 C8.16 0.05 13.57 0.41 19.06 1.19 C19.06 1.52 19.06 1.85 19.06 2.19 C14.92 3.3 10.75 3.4 6.49 3.5 C5.76 3.52 5.04 3.55 4.29 3.57 C2.77 3.61 1.24 3.65 -0.29 3.69 C-2.6 3.75 -4.91 3.81 -7.22 3.88 C-11.46 4 -15.7 4.1 -19.94 4.19 C-21.06 4.22 -22.19 4.25 -23.35 4.28 C-25.55 4.33 -27.74 4.28 -29.94 4.19 C-22.1 -1.04 -9.18 0.01 0 0 Z " fill="#312754" transform="translate(478.9375,290.8125)"/>
</svg>
