<?xml version="1.0" encoding="UTF-8"?>
<svg xmlns="http://www.w3.org/2000/svg" xmlns:xlink="http://www.w3.org/1999/xlink" width="157.41" height="106.6" viewBox="0 0 157.41 106.6">
<path fill="none" stroke-width='0.8' stroke-linecap="butt" stroke-linejoin="miter" stroke="rgb(0%, 0%, 0%)" stroke-opacity="1" stroke-miterlimit="10" d="M 0.0011539 -0.00162858 L 0.0011539 15.940782 " transform="matrix(0.996262, 0, 0, -0.996262, 86.948069, 56.072596)"/>
<path fill="none" stroke-width='0.8' stroke-linecap="butt" stroke-linejoin="miter" stroke="rgb(0%, 0%, 0%)" stroke-opacity="1" stroke-miterlimit="10" d="M 0.0011539 15.940782 L -7.970051 29.746297 " transform="matrix(0.996262, 0, 0, -0.996262, 86.948069, 56.072596)"/>
<path fill="none" stroke-width='0.8' stroke-linecap="butt" stroke-linejoin="miter" stroke="rgb(0%, 0%, 0%)" stroke-opacity="1" stroke-miterlimit="10" d="M -7.970051 29.746297 L -21.775567 37.713582 " transform="matrix(0.996262, 0, 0, -0.996262, 86.948069, 56.072596)"/>
<path fill="none" stroke-width='0.8' stroke-linecap="butt" stroke-linejoin="miter" stroke="rgb(0%, 0%, 0%)" stroke-opacity="1" stroke-miterlimit="10" d="M -21.775567 37.713582 L -37.714056 37.713582 " transform="matrix(0.996262, 0, 0, -0.996262, 86.948069, 56.072596)"/>
<path fill="none" stroke-width='0.8' stroke-linecap="butt" stroke-linejoin="miter" stroke="rgb(0%, 0%, 0%)" stroke-opacity="1" stroke-miterlimit="10" d="M -37.714056 37.713582 L -51.519572 29.746297 " transform="matrix(0.996262, 0, 0, -0.996262, 86.948069, 56.072596)"/>
<path fill="none" stroke-width='0.8' stroke-linecap="butt" stroke-linejoin="miter" stroke="rgb(0%, 0%, 0%)" stroke-opacity="1" stroke-miterlimit="10" d="M -51.519572 29.746297 L -59.490777 15.940782 " transform="matrix(0.996262, 0, 0, -0.996262, 86.948069, 56.072596)"/>
<path fill="none" stroke-width='0.8' stroke-linecap="butt" stroke-linejoin="miter" stroke="rgb(0%, 0%, 0%)" stroke-opacity="1" stroke-miterlimit="10" d="M -59.490777 15.940782 L -73.296293 7.969577 " transform="matrix(0.996262, 0, 0, -0.996262, 86.948069, 56.072596)"/>
<path fill="none" stroke-width='0.8' stroke-linecap="butt" stroke-linejoin="miter" stroke="rgb(0%, 0%, 0%)" stroke-opacity="1" stroke-miterlimit="10" d="M -73.296293 7.969577 L -59.490777 -0.00162858 " transform="matrix(0.996262, 0, 0, -0.996262, 86.948069, 56.072596)"/>
<path fill="none" stroke-width='0.8' stroke-linecap="butt" stroke-linejoin="miter" stroke="rgb(0%, 0%, 0%)" stroke-opacity="1" stroke-miterlimit="10" d="M -59.490777 -0.00162858 L -59.490777 15.940782 " transform="matrix(0.996262, 0, 0, -0.996262, 86.948069, 56.072596)"/>
<path fill="none" stroke-width='0.8' stroke-linecap="butt" stroke-linejoin="miter" stroke="rgb(0%, 0%, 0%)" stroke-opacity="1" stroke-miterlimit="10" d="M -59.490777 -0.00162858 L -51.519572 -13.803223 " transform="matrix(0.996262, 0, 0, -0.996262, 86.948069, 56.072596)"/>
<path fill="none" stroke-width='0.8' stroke-linecap="butt" stroke-linejoin="miter" stroke="rgb(0%, 0%, 0%)" stroke-opacity="1" stroke-miterlimit="10" d="M -51.519572 -13.803223 L -37.714056 -21.774428 " transform="matrix(0.996262, 0, 0, -0.996262, 86.948069, 56.072596)"/>
<path fill="none" stroke-width='0.8' stroke-linecap="butt" stroke-linejoin="miter" stroke="rgb(0%, 0%, 0%)" stroke-opacity="1" stroke-miterlimit="10" d="M -37.714056 -21.774428 L -21.775567 -21.774428 " transform="matrix(0.996262, 0, 0, -0.996262, 86.948069, 56.072596)"/>
<path fill="none" stroke-width='0.8' stroke-linecap="butt" stroke-linejoin="miter" stroke="rgb(0%, 0%, 0%)" stroke-opacity="1" stroke-miterlimit="10" d="M -21.775567 -21.774428 L -7.970051 -13.803223 " transform="matrix(0.996262, 0, 0, -0.996262, 86.948069, 56.072596)"/>
<path fill="none" stroke-width='0.8' stroke-linecap="butt" stroke-linejoin="miter" stroke="rgb(0%, 0%, 0%)" stroke-opacity="1" stroke-miterlimit="10" d="M -7.970051 -13.803223 L 0.0011539 -0.00162858 " transform="matrix(0.996262, 0, 0, -0.996262, 86.948069, 56.072596)"/>
<path fill="none" stroke-width='0.8' stroke-linecap="butt" stroke-linejoin="miter" stroke="rgb(0%, 0%, 0%)" stroke-opacity="1" stroke-miterlimit="10" d="M -21.775567 -21.774428 L -6.052727 -24.405357 " transform="matrix(0.996262, 0, 0, -0.996262, 86.948069, 56.072596)"/>
<path fill="none" stroke-width='0.8' stroke-linecap="butt" stroke-linejoin="miter" stroke="rgb(0%, 0%, 0%)" stroke-opacity="1" stroke-miterlimit="10" d="M -6.052727 -24.405357 L 9.019241 -19.214076 " transform="matrix(0.996262, 0, 0, -0.996262, 86.948069, 56.072596)"/>
<path fill="none" stroke-width='0.8' stroke-linecap="butt" stroke-linejoin="miter" stroke="rgb(0%, 0%, 0%)" stroke-opacity="1" stroke-miterlimit="10" d="M 9.019241 -19.214076 L 17.606029 -32.643184 " transform="matrix(0.996262, 0, 0, -0.996262, 86.948069, 56.072596)"/>
<path fill="none" stroke-width='0.8' stroke-linecap="butt" stroke-linejoin="miter" stroke="rgb(0%, 0%, 0%)" stroke-opacity="1" stroke-miterlimit="10" d="M 17.606029 -32.643184 L 32.783862 -37.516872 " transform="matrix(0.996262, 0, 0, -0.996262, 86.948069, 56.072596)"/>
<path fill="none" stroke-width='0.8' stroke-linecap="butt" stroke-linejoin="miter" stroke="rgb(0%, 0%, 0%)" stroke-opacity="1" stroke-miterlimit="10" d="M 32.783862 -37.516872 L 47.573526 -31.572777 " transform="matrix(0.996262, 0, 0, -0.996262, 86.948069, 56.072596)"/>
<path fill="none" stroke-width='0.8' stroke-linecap="butt" stroke-linejoin="miter" stroke="rgb(0%, 0%, 0%)" stroke-opacity="1" stroke-miterlimit="10" d="M 47.573526 -31.572777 L 55.15264 -17.551611 " transform="matrix(0.996262, 0, 0, -0.996262, 86.948069, 56.072596)"/>
<path fill="none" stroke-width='0.8' stroke-linecap="butt" stroke-linejoin="miter" stroke="rgb(0%, 0%, 0%)" stroke-opacity="1" stroke-miterlimit="10" d="M 55.15264 -17.551611 L 52.031598 -1.918952 " transform="matrix(0.996262, 0, 0, -0.996262, 86.948069, 56.072596)"/>
<path fill="none" stroke-width='0.8' stroke-linecap="butt" stroke-linejoin="miter" stroke="rgb(0%, 0%, 0%)" stroke-opacity="1" stroke-miterlimit="10" d="M 52.031598 -1.918952 L 56.156393 13.478452 " transform="matrix(0.996262, 0, 0, -0.996262, 86.948069, 56.072596)"/>
<path fill="none" stroke-width='0.8' stroke-linecap="butt" stroke-linejoin="miter" stroke="rgb(0%, 0%, 0%)" stroke-opacity="1" stroke-miterlimit="10" d="M 56.156393 13.478452 L 51.470908 28.711178 " transform="matrix(0.996262, 0, 0, -0.996262, 86.948069, 56.072596)"/>
<path fill="none" stroke-width='0.8' stroke-linecap="butt" stroke-linejoin="miter" stroke="rgb(0%, 0%, 0%)" stroke-opacity="1" stroke-miterlimit="10" d="M 51.470908 28.711178 L 39.386671 39.105504 " transform="matrix(0.996262, 0, 0, -0.996262, 86.948069, 56.072596)"/>
<path fill="none" stroke-width='0.8' stroke-linecap="butt" stroke-linejoin="miter" stroke="rgb(0%, 0%, 0%)" stroke-opacity="1" stroke-miterlimit="10" d="M 39.386671 39.105504 L 23.624622 41.489416 " transform="matrix(0.996262, 0, 0, -0.996262, 86.948069, 56.072596)"/>
<path fill="none" stroke-width='0.8' stroke-linecap="butt" stroke-linejoin="miter" stroke="rgb(0%, 0%, 0%)" stroke-opacity="1" stroke-miterlimit="10" d="M 23.624622 41.489416 L 9.007479 35.133624 " transform="matrix(0.996262, 0, 0, -0.996262, 86.948069, 56.072596)"/>
<path fill="none" stroke-width='0.8' stroke-linecap="butt" stroke-linejoin="miter" stroke="rgb(0%, 0%, 0%)" stroke-opacity="1" stroke-miterlimit="10" d="M 9.007479 35.133624 L -6.06449 40.324906 " transform="matrix(0.996262, 0, 0, -0.996262, 86.948069, 56.072596)"/>
<path fill="none" stroke-width='0.8' stroke-linecap="butt" stroke-linejoin="miter" stroke="rgb(0%, 0%, 0%)" stroke-opacity="1" stroke-miterlimit="10" d="M -6.06449 40.324906 L -21.78733 37.693977 " transform="matrix(0.996262, 0, 0, -0.996262, 86.948069, 56.072596)"/>
<path fill="none" stroke-width='0.8' stroke-linecap="butt" stroke-linejoin="miter" stroke="rgb(0%, 0%, 0%)" stroke-opacity="1" stroke-miterlimit="10" d="M 9.007479 35.133624 L 19.797816 23.402269 " transform="matrix(0.996262, 0, 0, -0.996262, 86.948069, 56.072596)"/>
<path fill="none" stroke-width='0.8' stroke-linecap="butt" stroke-linejoin="miter" stroke="rgb(0%, 0%, 0%)" stroke-opacity="1" stroke-miterlimit="10" d="M 19.797816 23.402269 L 23.706961 7.949972 " transform="matrix(0.996262, 0, 0, -0.996262, 86.948069, 56.072596)"/>
<path fill="none" stroke-width='0.8' stroke-linecap="butt" stroke-linejoin="miter" stroke="rgb(0%, 0%, 0%)" stroke-opacity="1" stroke-miterlimit="10" d="M 23.706961 7.949972 L 19.797816 -7.506246 " transform="matrix(0.996262, 0, 0, -0.996262, 86.948069, 56.072596)"/>
<path fill="none" stroke-width='0.8' stroke-linecap="butt" stroke-linejoin="miter" stroke="rgb(0%, 0%, 0%)" stroke-opacity="1" stroke-miterlimit="10" d="M 19.797816 -7.506246 L 9.007479 -19.237601 " transform="matrix(0.996262, 0, 0, -0.996262, 86.948069, 56.072596)"/>
<path fill="none" stroke-width='0.8' stroke-linecap="butt" stroke-linejoin="miter" stroke="rgb(0%, 0%, 0%)" stroke-opacity="1" stroke-miterlimit="10" d="M 23.706961 7.949972 L 39.645451 8.11465 " transform="matrix(0.996262, 0, 0, -0.996262, 86.948069, 56.072596)"/>
<path fill="none" stroke-width='0.8' stroke-linecap="butt" stroke-linejoin="miter" stroke="rgb(0%, 0%, 0%)" stroke-opacity="1" stroke-miterlimit="10" d="M 39.645451 8.11465 L 52.015914 -1.938557 " transform="matrix(0.996262, 0, 0, -0.996262, 86.948069, 56.072596)"/>
</svg>
