<?xml version="1.0" encoding="UTF-8"?>
<svg xmlns="http://www.w3.org/2000/svg" xmlns:xlink="http://www.w3.org/1999/xlink" width="59.776" height="55.791" viewBox="0 0 59.776 55.791">
<path fill="none" stroke-width='0.8' stroke-linecap="butt" stroke-linejoin="miter" stroke="rgb(0%, 0%, 0%)" stroke-opacity="1" stroke-miterlimit="10" d="M -0.000236182 0.0000454196 L 15.942094 0.0000454196 " transform="matrix(0.996267, 0, 0, -0.996267, 21.836173, 20.886764)"/>
<path fill="none" stroke-width='0.8' stroke-linecap="butt" stroke-linejoin="miter" stroke="rgb(0%, 0%, 0%)" stroke-opacity="1" stroke-miterlimit="10" d="M -0.000236182 -2.987671 L 15.942094 -2.987671 " transform="matrix(0.996267, 0, 0, -0.996267, 21.836173, 20.886764)"/>
<path fill="none" stroke-width='0.8' stroke-linecap="butt" stroke-linejoin="miter" stroke="rgb(0%, 0%, 0%)" stroke-opacity="1" stroke-miterlimit="10" d="M 15.942094 0.0000454196 L 23.909339 -13.805401 " transform="matrix(0.996267, 0, 0, -0.996267, 21.836173, 20.886764)"/>
<path fill="none" stroke-width='0.8' stroke-linecap="butt" stroke-linejoin="miter" stroke="rgb(0%, 0%, 0%)" stroke-opacity="1" stroke-miterlimit="10" d="M 23.909339 -13.805401 L 15.942094 -27.610848 " transform="matrix(0.996267, 0, 0, -0.996267, 21.836173, 20.886764)"/>
<path fill="none" stroke-width='0.8' stroke-linecap="butt" stroke-linejoin="miter" stroke="rgb(0%, 0%, 0%)" stroke-opacity="1" stroke-miterlimit="10" d="M 21.321553 -12.311543 L 13.350387 -26.113069 " transform="matrix(0.996267, 0, 0, -0.996267, 21.836173, 20.886764)"/>
<path fill="none" stroke-width='0.8' stroke-linecap="butt" stroke-linejoin="miter" stroke="rgb(0%, 0%, 0%)" stroke-opacity="1" stroke-miterlimit="10" d="M 15.942094 -27.610848 L -0.000236182 -27.610848 " transform="matrix(0.996267, 0, 0, -0.996267, 21.836173, 20.886764)"/>
<path fill="none" stroke-width='0.8' stroke-linecap="butt" stroke-linejoin="miter" stroke="rgb(0%, 0%, 0%)" stroke-opacity="1" stroke-miterlimit="10" d="M -0.000236182 -27.610848 L -7.971401 -13.805401 " transform="matrix(0.996267, 0, 0, -0.996267, 21.836173, 20.886764)"/>
<path fill="none" stroke-width='0.8' stroke-linecap="butt" stroke-linejoin="miter" stroke="rgb(0%, 0%, 0%)" stroke-opacity="1" stroke-miterlimit="10" d="M 2.58755 -26.113069 L -5.379694 -12.311543 " transform="matrix(0.996267, 0, 0, -0.996267, 21.836173, 20.886764)"/>
<path fill="none" stroke-width='0.8' stroke-linecap="butt" stroke-linejoin="miter" stroke="rgb(0%, 0%, 0%)" stroke-opacity="1" stroke-miterlimit="10" d="M -7.971401 -13.805401 L -0.000236182 0.0000454196 " transform="matrix(0.996267, 0, 0, -0.996267, 21.836173, 20.886764)"/>
</svg>
