<?xml version="1.0" encoding="UTF-8"?>
<svg xmlns="http://www.w3.org/2000/svg" xmlns:xlink="http://www.w3.org/1999/xlink" width="67.746" height="41.843" viewBox="0 0 67.746 41.843">
<path fill="none" stroke-width='0.8' stroke-linecap="butt" stroke-linejoin="miter" stroke="rgb(0%, 0%, 0%)" stroke-opacity="1" stroke-miterlimit="10" d="M -0.000379992 0.00171491 L 15.942027 0.00171491 " transform="matrix(0.996262, 0, 0, -0.996262, 13.250379, 27.595458)"/>
<path fill="none" stroke-width='0.8' stroke-linecap="butt" stroke-linejoin="miter" stroke="rgb(0%, 0%, 0%)" stroke-opacity="1" stroke-miterlimit="10" d="M -0.000379992 2.989446 L 15.942027 2.989446 " transform="matrix(0.996262, 0, 0, -0.996262, 13.250379, 27.595458)"/>
<path fill="none" stroke-width='0.8' stroke-linecap="butt" stroke-linejoin="miter" stroke="rgb(0%, 0%, 0%)" stroke-opacity="1" stroke-miterlimit="10" d="M -0.000379992 -2.989937 L 15.942027 -2.989937 " transform="matrix(0.996262, 0, 0, -0.996262, 13.250379, 27.595458)"/>
<path fill="none" stroke-width='0.8' stroke-linecap="butt" stroke-linejoin="miter" stroke="rgb(0%, 0%, 0%)" stroke-opacity="1" stroke-miterlimit="10" d="M 15.942027 0.00171491 L 31.880513 0.00171491 " transform="matrix(0.996262, 0, 0, -0.996262, 13.250379, 27.595458)"/>
<path fill="none" stroke-width='0.8' stroke-linecap="butt" stroke-linejoin="miter" stroke="rgb(0%, 0%, 0%)" stroke-opacity="1" stroke-miterlimit="10" d="M 30.586613 0.746687 L 38.557817 14.5522 " transform="matrix(0.996262, 0, 0, -0.996262, 13.250379, 27.595458)"/>
<path fill="none" stroke-width='0.8' stroke-linecap="butt" stroke-linejoin="miter" stroke="rgb(0%, 0%, 0%)" stroke-opacity="1" stroke-miterlimit="10" d="M 33.174412 -0.747178 L 41.145615 13.058334 " transform="matrix(0.996262, 0, 0, -0.996262, 13.250379, 27.595458)"/>
</svg>
