<?xml version="1.0" encoding="UTF-8"?>
<svg xmlns="http://www.w3.org/2000/svg" xmlns:xlink="http://www.w3.org/1999/xlink" width="59.776" height="55.791" viewBox="0 0 59.776 55.791">
<path fill="none" stroke-width='0.8' stroke-linecap="butt" stroke-linejoin="miter" stroke="rgb(0%, 0%, 0%)" stroke-opacity="1" stroke-miterlimit="10" d="M -0.000236182 0.0000454196 L 15.942094 0.0000454196 " transform="matrix(0.996267, 0, 0, -0.996267, 21.836173, 20.886764)"/>
<path fill="none" stroke-width='0.8' stroke-linecap="butt" stroke-linejoin="miter" stroke="rgb(0%, 0%, 0%)" stroke-opacity="1" stroke-miterlimit="10" d="M 10.359915 -0.000401164 C 10.359915 5.724095 5.721505 10.362506 0.000929085 10.362506 C -5.723567 10.362506 -10.361978 5.724095 -10.361978 -0.000401164 C -10.361978 -5.720977 -5.723567 -10.363308 0.000929085 -10.363308 C 5.721505 -10.363308 10.359915 -5.720977 10.359915 -0.000401164 Z M 10.359915 -0.000401164 " transform="matrix(0.996267, 0, 0, -0.996267, 29.776418, 34.640225)"/>
<path fill="none" stroke-width='0.8' stroke-linecap="butt" stroke-linejoin="miter" stroke="rgb(0%, 0%, 0%)" stroke-opacity="1" stroke-miterlimit="10" d="M 15.942094 0.0000454196 L 23.909339 -13.805401 " transform="matrix(0.996267, 0, 0, -0.996267, 21.836173, 20.886764)"/>
<path fill="none" stroke-width='0.8' stroke-linecap="butt" stroke-linejoin="miter" stroke="rgb(0%, 0%, 0%)" stroke-opacity="1" stroke-miterlimit="10" d="M 23.909339 -13.805401 L 15.942094 -27.610848 " transform="matrix(0.996267, 0, 0, -0.996267, 21.836173, 20.886764)"/>
<path fill="none" stroke-width='0.8' stroke-linecap="butt" stroke-linejoin="miter" stroke="rgb(0%, 0%, 0%)" stroke-opacity="1" stroke-miterlimit="10" d="M 15.942094 -27.610848 L -0.000236182 -27.610848 " transform="matrix(0.996267, 0, 0, -0.996267, 21.836173, 20.886764)"/>
<path fill="none" stroke-width='0.8' stroke-linecap="butt" stroke-linejoin="miter" stroke="rgb(0%, 0%, 0%)" stroke-opacity="1" stroke-miterlimit="10" d="M -0.000236182 -27.610848 L -7.971401 -13.805401 " transform="matrix(0.996267, 0, 0, -0.996267, 21.836173, 20.886764)"/>
<path fill="none" stroke-width='0.8' stroke-linecap="butt" stroke-linejoin="miter" stroke="rgb(0%, 0%, 0%)" stroke-opacity="1" stroke-miterlimit="10" d="M -7.971401 -13.805401 L -0.000236182 0.0000454196 " transform="matrix(0.996267, 0, 0, -0.996267, 21.836173, 20.886764)"/>
</svg>
