<?xml version="1.0" encoding="UTF-8"?>
<svg xmlns="http://www.w3.org/2000/svg" xmlns:xlink="http://www.w3.org/1999/xlink" width="83.686" height="55.791" viewBox="0 0 83.686 55.791">
<path fill="none" stroke-width='0.8' stroke-linecap="butt" stroke-linejoin="miter" stroke="rgb(0%, 0%, 0%)" stroke-opacity="1" stroke-miterlimit="10" d="M -0.00133479 0.0000790455 L 7.969869 -13.805434 " transform="matrix(0.996262, 0, 0, -0.996262, 13.895861, 20.886798)"/>
<path fill="none" stroke-width='0.8' stroke-linecap="butt" stroke-linejoin="miter" stroke="rgb(0%, 0%, 0%)" stroke-opacity="1" stroke-miterlimit="10" d="M 7.969869 -13.805434 L -0.00133479 -27.610946 " transform="matrix(0.996262, 0, 0, -0.996262, 13.895861, 20.886798)"/>
<path fill="none" stroke-width='0.8' stroke-linecap="butt" stroke-linejoin="miter" stroke="rgb(0%, 0%, 0%)" stroke-opacity="1" stroke-miterlimit="10" d="M 7.969869 -13.805434 L 23.912275 -13.805434 " transform="matrix(0.996262, 0, 0, -0.996262, 13.895861, 20.886798)"/>
<path fill="none" stroke-width='0.8' stroke-linecap="butt" stroke-linejoin="miter" stroke="rgb(0%, 0%, 0%)" stroke-opacity="1" stroke-miterlimit="10" d="M 23.912275 -13.805434 L 31.879558 -27.610946 " transform="matrix(0.996262, 0, 0, -0.996262, 13.895861, 20.886798)"/>
<path fill="none" stroke-width='0.8' stroke-linecap="butt" stroke-linejoin="miter" stroke="rgb(0%, 0%, 0%)" stroke-opacity="1" stroke-miterlimit="10" d="M 10.359797 -0.000433525 C 10.359797 5.72409 5.721364 10.362523 0.000761143 10.362523 C -5.723763 10.362523 -10.362195 5.72409 -10.362195 -0.000433525 C -10.362195 -5.721036 -5.723763 -10.359469 0.000761143 -10.359469 C 5.721364 -10.359469 10.359797 -5.721036 10.359797 -0.000433525 Z M 10.359797 -0.000433525 " transform="matrix(0.996262, 0, 0, -0.996262, 53.596898, 34.640193)"/>
<path fill="none" stroke-width='0.8' stroke-linecap="butt" stroke-linejoin="miter" stroke="rgb(0%, 0%, 0%)" stroke-opacity="1" stroke-miterlimit="10" d="M 31.879558 -27.610946 L 47.821965 -27.610946 " transform="matrix(0.996262, 0, 0, -0.996262, 13.895861, 20.886798)"/>
<path fill="none" stroke-width='0.8' stroke-linecap="butt" stroke-linejoin="miter" stroke="rgb(0%, 0%, 0%)" stroke-opacity="1" stroke-miterlimit="10" d="M 47.821965 -27.610946 L 55.793168 -13.805434 " transform="matrix(0.996262, 0, 0, -0.996262, 13.895861, 20.886798)"/>
<path fill="none" stroke-width='0.8' stroke-linecap="butt" stroke-linejoin="miter" stroke="rgb(0%, 0%, 0%)" stroke-opacity="1" stroke-miterlimit="10" d="M 55.793168 -13.805434 L 47.821965 0.0000790455 " transform="matrix(0.996262, 0, 0, -0.996262, 13.895861, 20.886798)"/>
<path fill="none" stroke-width='0.8' stroke-linecap="butt" stroke-linejoin="miter" stroke="rgb(0%, 0%, 0%)" stroke-opacity="1" stroke-miterlimit="10" d="M 47.821965 0.0000790455 L 31.879558 0.0000790455 " transform="matrix(0.996262, 0, 0, -0.996262, 13.895861, 20.886798)"/>
<path fill="none" stroke-width='0.8' stroke-linecap="butt" stroke-linejoin="miter" stroke="rgb(0%, 0%, 0%)" stroke-opacity="1" stroke-miterlimit="10" d="M 31.879558 0.0000790455 L 23.912275 -13.805434 " transform="matrix(0.996262, 0, 0, -0.996262, 13.895861, 20.886798)"/>
</svg>
