<?xml version="1.0" encoding="UTF-8"?>
<svg xmlns="http://www.w3.org/2000/svg" xmlns:xlink="http://www.w3.org/1999/xlink" width="75.716" height="55.791" viewBox="0 0 75.716 55.791">
<path fill="none" stroke-width='0.8' stroke-linecap="butt" stroke-linejoin="miter" stroke="rgb(0%, 0%, 0%)" stroke-opacity="1" stroke-miterlimit="10" d="M -0.00135233 -0.000993225 L 15.941034 -0.000993225 " transform="matrix(0.996263, 0, 0, -0.996263, 13.895879, 28.784167)"/>
<path fill="none" stroke-width='0.8' stroke-linecap="butt" stroke-linejoin="miter" stroke="rgb(0%, 0%, 0%)" stroke-opacity="1" stroke-miterlimit="10" d="M 15.941034 -0.000993225 L 23.912228 -13.806488 " transform="matrix(0.996263, 0, 0, -0.996263, 13.895879, 28.784167)"/>
<path fill="none" stroke-width='0.8' stroke-linecap="butt" stroke-linejoin="miter" stroke="rgb(0%, 0%, 0%)" stroke-opacity="1" stroke-miterlimit="10" d="M 18.52883 1.49287 L 26.500023 -12.308704 " transform="matrix(0.996263, 0, 0, -0.996263, 13.895879, 28.784167)"/>
<path fill="none" stroke-width='0.8' stroke-linecap="butt" stroke-linejoin="miter" stroke="rgb(0%, 0%, 0%)" stroke-opacity="1" stroke-miterlimit="10" d="M 23.912228 -13.806488 L 39.850693 -13.806488 " transform="matrix(0.996263, 0, 0, -0.996263, 13.895879, 28.784167)"/>
<path fill="none" stroke-width='0.8' stroke-linecap="butt" stroke-linejoin="miter" stroke="rgb(0%, 0%, 0%)" stroke-opacity="1" stroke-miterlimit="10" d="M 39.850693 -13.806488 L 47.821887 -0.000993225 " transform="matrix(0.996263, 0, 0, -0.996263, 13.895879, 28.784167)"/>
<path fill="none" stroke-width='0.8' stroke-linecap="butt" stroke-linejoin="miter" stroke="rgb(0%, 0%, 0%)" stroke-opacity="1" stroke-miterlimit="10" d="M 37.262898 -12.308704 L 45.234092 1.49287 " transform="matrix(0.996263, 0, 0, -0.996263, 13.895879, 28.784167)"/>
<path fill="none" stroke-width='0.8' stroke-linecap="butt" stroke-linejoin="miter" stroke="rgb(0%, 0%, 0%)" stroke-opacity="1" stroke-miterlimit="10" d="M 47.821887 -0.000993225 L 39.850693 13.804502 " transform="matrix(0.996263, 0, 0, -0.996263, 13.895879, 28.784167)"/>
<path fill="none" stroke-width='0.8' stroke-linecap="butt" stroke-linejoin="miter" stroke="rgb(0%, 0%, 0%)" stroke-opacity="1" stroke-miterlimit="10" d="M 39.850693 13.804502 L 23.912228 13.804502 " transform="matrix(0.996263, 0, 0, -0.996263, 13.895879, 28.784167)"/>
<path fill="none" stroke-width='0.8' stroke-linecap="butt" stroke-linejoin="miter" stroke="rgb(0%, 0%, 0%)" stroke-opacity="1" stroke-miterlimit="10" d="M 39.850693 10.816775 L 23.912228 10.816775 " transform="matrix(0.996263, 0, 0, -0.996263, 13.895879, 28.784167)"/>
<path fill="none" stroke-width='0.8' stroke-linecap="butt" stroke-linejoin="miter" stroke="rgb(0%, 0%, 0%)" stroke-opacity="1" stroke-miterlimit="10" d="M 23.912228 13.804502 L 15.941034 -0.000993225 " transform="matrix(0.996263, 0, 0, -0.996263, 13.895879, 28.784167)"/>
</svg>
